<svg xmlns="http://www.w3.org/2000/svg" xmlns:xlink="http://www.w3.org/1999/xlink" width="31.165" height="31.165" viewBox="0 0 31.165 31.165">
  <defs>
    <clipPath id="clip-path">
      <path id="Trazado_18" data-name="Trazado 18" d="M0-47.5H31.165v31.165H0Z" fill="#b978f2"/>
    </clipPath>
  </defs>
  <g id="Link" transform="translate(0 47.5)" clip-path="url(#clip-path)">
    <path id="Trazado_16" data-name="Trazado 16" d="M18.357-38.726l4.921-4.921s4.921-4.921,9.842,0,0,9.842,0,9.842l-6.561,6.561s-4.921,4.921-9.842,0a8.613,8.613,0,0,1-1.494-2.149l2.75-2.746a3.329,3.329,0,0,0,1.2,2.434,3.408,3.408,0,0,0,4.921,0l6.561-6.561a3.408,3.408,0,0,0,0-4.921,3.408,3.408,0,0,0-4.921,0L22.68-38.128s-1.521-1.247-4.63-.29Z" transform="translate(-5.235 -0.573)" fill="#b978f2"/>
    <path id="Trazado_17" data-name="Trazado 17" d="M18.422-19.664,13.5-14.744s-4.921,4.921-9.842,0,0-9.842,0-9.842l6.561-6.561s4.921-4.921,9.842,0A8.613,8.613,0,0,1,21.557-29l-2.75,2.747a3.33,3.33,0,0,0-1.2-2.435,3.408,3.408,0,0,0-4.921,0L6.12-22.125a3.408,3.408,0,0,0,0,4.921,3.408,3.408,0,0,0,4.921,0L14.1-20.262s1.521,1.247,4.63.29Z" transform="translate(-0.507 -4.872)" fill="#b978f2"/>
  </g>
</svg>
